<svg xmlns="http://www.w3.org/2000/svg" width="16" height="16" fill="none">
  <path fill="#fa3536" d="M11.5 3.5a6 6 0 0 0-7 0C2 1 2 2 2 5 .5 5.5.5 6 1 6.5c-1 1-1 1 0 2-.5.5-.5 1 .5 1.5 2.5 5 10.5 5 13 0 1.04-.5 1-1 .5-1.5 1-1 1-1 0-2 .5-.5.5-1-1-1.5 0-3 0-4-2.5-1.5"/>
  <path fill="#000" d="M6 7a1 1 0 1 1-2 0 1 1 0 0 1 2 0"/>
  <circle cx="11" cy="7" r="1.75" fill="#000" stroke="#ffb266" stroke-width=".5"/>
  <path fill="#fff" d="M10 10c0 2.5-4 2.5-4 0 2 .5 2-.5 2-1 0 .5 0 1.5 2 1"/>
  <path fill="#000" d="M8.5 9a.5.5 0 1 1-1 0 .5.5 0 0 1 1 0"/>
</svg>
